<svg xmlns="http://www.w3.org/2000/svg" xmlns:xlink="http://www.w3.org/1999/xlink" version="1.1" x="0px" y="0px" viewBox="0 0 100 125" enable-background="new 0 0 100 100" xml:space="preserve"><g><path d="M69.38,50.955c0-0.05-0.003-0.099-0.008-0.148l-2.689-27.129c-0.076-0.767-0.722-1.352-1.493-1.352H37.692   c-0.771,0-1.417,0.585-1.493,1.352L33.51,50.807c-0.005,0.05-0.008,0.099-0.008,0.148c0,7.566,5.805,14.737,13.684,17.126v18.788   h-3.162c-2.829,0-5.312,2.659-5.312,5.691c0,0.828,0.672,1.5,1.5,1.5h22.652c0.828,0,1.5-0.672,1.5-1.5   c0-3.032-2.481-5.691-5.31-5.691h-3.162V68.08C63.658,65.709,69.38,58.541,69.38,50.955z M54.393,89.869h4.662   c0.728,0,1.432,0.492,1.867,1.191H42.155c0.436-0.699,1.14-1.191,1.868-1.191h4.662c0.828,0,1.5-0.672,1.5-1.5V66.934   c0-0.694-0.478-1.299-1.153-1.459c-6.055-1.439-12.488-6.988-12.53-14.447l2.549-25.701h24.78l2.549,25.701   c-0.039,6.578-5.328,12.781-12.334,14.447c-0.676,0.16-1.153,0.765-1.153,1.459v21.436C52.893,89.197,53.564,89.869,54.393,89.869z   "/><path d="M64.364,50.59c0-0.042-0.002-0.083-0.005-0.124l-0.97-11.654c-0.065-0.778-0.715-1.376-1.495-1.376H41.299   c-0.774,0-1.422,0.59-1.493,1.36L38.719,50.45c-0.005,0.047-0.007,0.093-0.007,0.14c0,7.073,5.754,12.828,12.826,12.828   S64.364,57.663,64.364,50.59z"/><path d="M79.582,14.899l-4.274-2.49l-2.413-4.194c-0.268-0.465-0.763-0.752-1.3-0.752h-0.001c-0.537,0-1.033,0.288-1.301,0.754   l-2.392,4.175L63.607,14.9c-0.462,0.27-0.745,0.765-0.743,1.3s0.288,1.028,0.752,1.295l4.192,2.412l2.49,4.275   c0.269,0.461,0.762,0.745,1.295,0.745h0.001c0.533,0,1.026-0.283,1.295-0.743L75.4,19.89l4.173-2.394   c0.465-0.266,0.752-0.76,0.754-1.296C80.329,15.665,80.045,15.169,79.582,14.899z M73.562,17.486   c-0.228,0.13-0.417,0.317-0.549,0.544l-1.416,2.421l-1.397-2.399c-0.132-0.227-0.32-0.415-0.548-0.545l-2.297-1.321l2.406-1.406   c0.227-0.132,0.414-0.321,0.545-0.549l1.292-2.255l1.31,2.276c0.13,0.228,0.318,0.416,0.545,0.548l2.378,1.386L73.562,17.486z"/></g><text x="0" y="115" fill="#000000" font-size="5px" font-weight="bold" font-family="'Helvetica Neue', Helvetica, Arial-Unicode, Arial, Sans-serif">Created by mungang kim</text><text x="0" y="120" fill="#000000" font-size="5px" font-weight="bold" font-family="'Helvetica Neue', Helvetica, Arial-Unicode, Arial, Sans-serif">from the Noun Project</text></svg>